<svg width="100%" height="100%" viewBox="0 0 420 146" fill="none" xmlns="http://www.w3.org/2000/svg">
    <path d="M188.002 132.62C188.002 133.395 188.033 134.007 188.095 134.456C188.157 134.905 188.277 135.254 188.455 135.502C188.633 135.75 188.889 135.913 189.222 135.99C189.555 136.068 189.993 136.114 190.536 136.13V137.013H183.005V136.13C183.547 136.114 183.985 136.064 184.318 135.978C184.651 135.893 184.911 135.734 185.097 135.502C185.283 135.27 185.407 134.94 185.469 134.514C185.531 134.088 185.562 133.511 185.562 132.783V123.346C185.562 122.695 185.535 122.157 185.48 121.731C185.426 121.305 185.318 120.968 185.155 120.72C184.992 120.472 184.756 120.298 184.446 120.197C184.136 120.096 183.733 120.03 183.237 119.999V119.116H190.303V119.999C189.807 120.015 189.408 120.077 189.106 120.185C188.804 120.294 188.572 120.476 188.409 120.731C188.246 120.987 188.138 121.34 188.083 121.789C188.029 122.238 188.002 122.812 188.002 123.509L188.002 132.62Z" fill="currentColor"/>
    <path d="M212.577 137.245L201.537 122.695H201.444V132.62C201.444 133.395 201.471 134.007 201.525 134.456C201.579 134.905 201.688 135.254 201.851 135.502C202.013 135.75 202.246 135.913 202.548 135.99C202.85 136.068 203.249 136.114 203.745 136.13V137.013H197.493V136.13C198.035 136.114 198.473 136.064 198.806 135.978C199.139 135.893 199.399 135.734 199.585 135.502C199.77 135.27 199.894 134.94 199.956 134.514C200.018 134.088 200.049 133.511 200.049 132.783V123.346C200.049 122.695 200.022 122.157 199.968 121.731C199.914 121.305 199.805 120.968 199.643 120.72C199.48 120.472 199.244 120.298 198.934 120.197C198.624 120.096 198.221 120.03 197.725 119.999V119.116H202.327L212.484 132.666H212.577V123.509C212.577 122.75 212.55 122.141 212.496 121.684C212.441 121.227 212.333 120.875 212.17 120.627C212.008 120.379 211.775 120.216 211.473 120.139C211.171 120.061 210.772 120.015 210.276 119.999V119.116H216.528V119.999C215.986 120.015 215.548 120.065 215.215 120.15C214.882 120.236 214.622 120.394 214.436 120.627C214.251 120.859 214.127 121.192 214.065 121.626C214.003 122.06 213.972 122.633 213.972 123.346V137.245L212.577 137.245Z" fill="currentColor"/>
    <path d="M251.314 123.555H250.361C250.315 122.889 250.206 122.331 250.036 121.882C249.866 121.433 249.622 121.08 249.304 120.824C248.986 120.569 248.587 120.387 248.107 120.278C247.627 120.17 247.053 120.116 246.387 120.116C245.814 120.116 245.353 120.127 245.004 120.15C244.655 120.174 244.388 120.216 244.202 120.278C244.016 120.34 243.896 120.414 243.842 120.499C243.788 120.584 243.761 120.697 243.761 120.836V133.271C243.761 133.767 243.795 134.193 243.865 134.549C243.935 134.905 244.074 135.196 244.284 135.421C244.493 135.645 244.795 135.816 245.19 135.932C245.585 136.048 246.108 136.114 246.759 136.13V137.013H237.973V136.13C238.624 136.114 239.151 136.048 239.554 135.932C239.957 135.816 240.263 135.645 240.472 135.421C240.681 135.196 240.82 134.905 240.89 134.549C240.96 134.193 240.995 133.767 240.995 133.271V120.836C240.995 120.697 240.968 120.584 240.913 120.499C240.859 120.414 240.751 120.34 240.588 120.278C240.425 120.216 240.197 120.174 239.902 120.15C239.608 120.127 239.213 120.116 238.717 120.116C238.113 120.116 237.551 120.139 237.032 120.185C236.513 120.232 236.063 120.367 235.684 120.592C235.304 120.817 234.998 121.161 234.766 121.626C234.533 122.091 234.409 122.734 234.394 123.555H233.534V119.116H251.082L251.314 123.555Z" fill="currentColor"/>
    <path d="M274.448 133.317C274.448 133.906 274.479 134.383 274.541 134.747C274.603 135.111 274.723 135.39 274.902 135.583C275.08 135.777 275.335 135.913 275.669 135.99C276.002 136.068 276.439 136.114 276.982 136.13V137.013H269.451V136.13C269.994 136.114 270.431 136.068 270.764 135.99C271.098 135.913 271.357 135.781 271.543 135.595C271.729 135.409 271.853 135.146 271.915 134.805C271.977 134.464 272.008 134.022 272.008 133.48V128.436H262.595V133.317C262.595 133.906 262.626 134.383 262.688 134.747C262.75 135.111 262.87 135.39 263.048 135.583C263.226 135.777 263.482 135.913 263.815 135.99C264.148 136.068 264.586 136.114 265.128 136.13V137.013H257.598V136.13C258.14 136.114 258.578 136.068 258.911 135.99C259.244 135.913 259.503 135.781 259.689 135.595C259.875 135.409 259.999 135.146 260.061 134.805C260.123 134.464 260.154 134.022 260.154 133.48V122.649C260.154 122.107 260.127 121.669 260.073 121.336C260.019 121.003 259.91 120.739 259.748 120.546C259.585 120.352 259.349 120.22 259.039 120.15C258.729 120.081 258.326 120.03 257.83 119.999V119.116H264.896V119.999C264.4 120.015 264.001 120.061 263.699 120.139C263.397 120.216 263.164 120.356 263.001 120.557C262.839 120.759 262.73 121.037 262.676 121.394C262.622 121.75 262.595 122.223 262.595 122.812V127.274H272.008V122.649C272.008 122.107 271.981 121.669 271.927 121.336C271.872 121.003 271.764 120.739 271.601 120.546C271.438 120.352 271.202 120.22 270.892 120.15C270.582 120.081 270.18 120.03 269.684 119.999V119.116H276.749V119.999C276.254 120.015 275.855 120.061 275.552 120.139C275.25 120.216 275.018 120.356 274.855 120.557C274.692 120.759 274.584 121.037 274.53 121.394C274.475 121.75 274.448 122.223 274.448 122.812L274.448 133.317Z" fill="currentColor"/>
    <path d="M288.936 127.181C289.773 127.181 290.474 127.131 291.04 127.03C291.605 126.929 292.054 126.771 292.388 126.554C292.721 126.337 292.961 126.058 293.108 125.717C293.255 125.376 293.329 124.973 293.329 124.508H294.142V130.854H293.329C293.329 130.389 293.263 129.986 293.131 129.645C293 129.304 292.767 129.021 292.434 128.797C292.101 128.572 291.652 128.401 291.086 128.285C290.52 128.169 289.804 128.111 288.936 128.111V133.364C288.936 133.875 288.998 134.297 289.122 134.63C289.246 134.964 289.459 135.235 289.761 135.444C290.063 135.653 290.462 135.8 290.958 135.885C291.454 135.971 292.066 136.013 292.794 136.013C293.616 136.013 294.313 135.955 294.886 135.839C295.459 135.723 295.94 135.525 296.327 135.246C296.715 134.967 297.024 134.599 297.257 134.142C297.489 133.685 297.683 133.116 297.838 132.434H298.721L298.372 137.013H283.939V136.13C284.481 136.114 284.919 136.068 285.252 135.99C285.585 135.913 285.845 135.781 286.031 135.595C286.217 135.409 286.341 135.146 286.403 134.805C286.465 134.464 286.496 134.022 286.496 133.48V122.649C286.496 122.107 286.469 121.669 286.414 121.336C286.36 121.003 286.252 120.739 286.089 120.546C285.926 120.352 285.69 120.22 285.38 120.15C285.07 120.081 284.667 120.03 284.171 119.999V119.116H297.606L297.815 123.207H297.001C296.908 122.587 296.757 122.08 296.548 121.684C296.339 121.289 296.052 120.976 295.688 120.743C295.324 120.511 294.863 120.348 294.305 120.255C293.747 120.162 293.073 120.116 292.283 120.116H289.331C289.068 120.116 288.936 120.247 288.936 120.511V127.181Z" fill="currentColor"/>
    <path d="M317.005 137.013V136.13C317.609 136.114 318.094 136.068 318.458 135.99C318.822 135.913 319.101 135.781 319.295 135.595C319.488 135.409 319.62 135.146 319.69 134.805C319.759 134.464 319.794 134.022 319.794 133.48V122.649C319.794 122.107 319.767 121.669 319.713 121.336C319.659 121.003 319.55 120.739 319.388 120.546C319.225 120.352 318.989 120.22 318.679 120.15C318.369 120.081 317.966 120.03 317.47 119.999V119.116H324.419C326.511 119.116 328.138 119.488 329.3 120.232C330.463 120.976 331.044 122.021 331.044 123.369C331.044 124.392 330.722 125.229 330.079 125.88C329.436 126.53 328.417 127.065 327.023 127.483V127.576C327.503 127.623 327.921 127.677 328.278 127.739C328.634 127.801 328.952 127.875 329.231 127.96C329.51 128.045 329.769 128.15 330.009 128.274C330.249 128.398 330.486 128.537 330.718 128.692C332.097 129.668 332.787 130.892 332.787 132.364C332.787 133.186 332.558 133.949 332.101 134.654C331.644 135.359 331.005 135.913 330.184 136.315C329.92 136.455 329.649 136.567 329.37 136.652C329.091 136.738 328.766 136.807 328.394 136.862C328.022 136.916 327.592 136.955 327.104 136.978C326.616 137.001 326.039 137.013 325.372 137.013H317.005ZM325.442 136.013C328.247 136.013 329.649 134.812 329.649 132.411C329.649 130.66 328.929 129.436 327.487 128.738C327.24 128.63 326.999 128.537 326.767 128.46C326.535 128.382 326.263 128.324 325.953 128.285C325.644 128.247 325.276 128.219 324.849 128.204C324.423 128.188 323.9 128.181 323.281 128.181H322.235V133.364C322.235 134.309 322.483 134.987 322.978 135.397C323.474 135.808 324.296 136.013 325.442 136.013ZM323.536 127.019C324.017 127.019 324.419 127.011 324.745 126.995C325.07 126.98 325.349 126.953 325.582 126.914C325.814 126.875 326.019 126.821 326.198 126.751C326.376 126.682 326.558 126.585 326.744 126.461C327.24 126.151 327.592 125.779 327.801 125.345C328.01 124.911 328.115 124.346 328.115 123.648C328.115 122.424 327.817 121.545 327.22 121.01C326.624 120.476 325.69 120.208 324.419 120.208H322.63C322.366 120.208 322.235 120.34 322.235 120.604V127.019H323.536Z" fill="currentColor"/>
    <path d="M344.695 127.181C345.531 127.181 346.232 127.131 346.798 127.03C347.364 126.929 347.813 126.771 348.146 126.554C348.479 126.337 348.719 126.058 348.867 125.717C349.014 125.376 349.087 124.973 349.087 124.508H349.901V130.854H349.087C349.087 130.389 349.022 129.986 348.89 129.645C348.758 129.304 348.526 129.021 348.193 128.797C347.859 128.572 347.41 128.401 346.845 128.285C346.279 128.169 345.562 128.111 344.695 128.111V133.364C344.695 133.875 344.757 134.297 344.881 134.63C345.005 134.964 345.218 135.235 345.52 135.444C345.822 135.653 346.221 135.8 346.717 135.885C347.213 135.971 347.825 136.013 348.553 136.013C349.374 136.013 350.071 135.955 350.645 135.839C351.218 135.723 351.698 135.525 352.086 135.246C352.473 134.967 352.783 134.599 353.015 134.142C353.248 133.685 353.442 133.116 353.596 132.434H354.48L354.131 137.013H339.698V136.13C340.24 136.114 340.678 136.068 341.011 135.99C341.344 135.913 341.603 135.781 341.789 135.595C341.975 135.409 342.099 135.146 342.161 134.805C342.223 134.464 342.254 134.022 342.254 133.48V122.649C342.254 122.107 342.227 121.669 342.173 121.336C342.119 121.003 342.01 120.739 341.847 120.546C341.685 120.352 341.448 120.22 341.139 120.15C340.829 120.081 340.426 120.03 339.93 119.999V119.116H353.364L353.573 123.207H352.76C352.667 122.587 352.516 122.08 352.307 121.684C352.097 121.289 351.811 120.976 351.447 120.743C351.082 120.511 350.621 120.348 350.064 120.255C349.506 120.162 348.832 120.116 348.042 120.116H345.09C344.826 120.116 344.695 120.247 344.695 120.511L344.695 127.181Z" fill="currentColor"/>
    <path d="M366.411 132.62C366.411 133.395 366.442 134.007 366.504 134.456C366.566 134.905 366.686 135.254 366.864 135.502C367.042 135.75 367.298 135.913 367.631 135.99C367.964 136.068 368.402 136.114 368.944 136.13V137.013H361.414V136.13C361.956 136.114 362.394 136.064 362.727 135.978C363.06 135.893 363.32 135.734 363.505 135.502C363.691 135.27 363.815 134.94 363.877 134.514C363.939 134.088 363.97 133.511 363.97 132.783V123.346C363.97 122.695 363.943 122.157 363.889 121.731C363.835 121.305 363.726 120.968 363.564 120.72C363.401 120.472 363.165 120.298 362.855 120.197C362.545 120.096 362.142 120.03 361.646 119.999V119.116H368.712V119.999C368.216 120.015 367.817 120.077 367.515 120.185C367.213 120.294 366.98 120.476 366.818 120.731C366.655 120.987 366.546 121.34 366.492 121.789C366.438 122.238 366.411 122.812 366.411 123.509L366.411 132.62Z" fill="currentColor"/>
    <path d="M390.986 137.245L379.946 122.695H379.853V132.62C379.853 133.395 379.88 134.007 379.934 134.456C379.988 134.905 380.097 135.254 380.259 135.502C380.422 135.75 380.654 135.913 380.957 135.99C381.259 136.068 381.658 136.114 382.154 136.13V137.013H375.901V136.13C376.444 136.114 376.881 136.064 377.215 135.978C377.548 135.893 377.807 135.734 377.993 135.502C378.179 135.27 378.303 134.94 378.365 134.514C378.427 134.088 378.458 133.511 378.458 132.783V123.346C378.458 122.695 378.431 122.157 378.377 121.731C378.322 121.305 378.214 120.968 378.051 120.72C377.889 120.472 377.652 120.298 377.342 120.197C377.033 120.096 376.63 120.03 376.134 119.999V119.116H380.736L390.893 132.666H390.986V123.509C390.986 122.75 390.959 122.141 390.904 121.684C390.85 121.227 390.742 120.875 390.579 120.627C390.416 120.379 390.184 120.216 389.882 120.139C389.58 120.061 389.181 120.015 388.685 119.999V119.116H394.937V119.999C394.395 120.015 393.957 120.065 393.624 120.15C393.291 120.236 393.031 120.394 392.845 120.627C392.659 120.859 392.535 121.192 392.473 121.626C392.411 122.06 392.38 122.633 392.38 123.346V137.245L390.986 137.245Z" fill="currentColor"/>
    <path d="M410.354 137.245C409.037 137.245 407.852 137.036 406.798 136.618C405.745 136.199 404.846 135.607 404.102 134.84C403.358 134.073 402.789 133.139 402.394 132.039C401.999 130.939 401.801 129.715 401.801 128.367C401.801 126.957 402.018 125.67 402.452 124.508C402.886 123.346 403.494 122.347 404.277 121.51C405.059 120.673 405.996 120.026 407.089 119.569C408.181 119.112 409.386 118.884 410.703 118.884C411.633 118.884 412.508 119.015 413.329 119.279C414.151 119.542 415.042 119.968 416.002 120.557L416.49 119.116H417.304L417.002 124.462H415.886C415.886 123.703 415.743 123.048 415.456 122.498C415.169 121.948 414.794 121.495 414.329 121.138C413.864 120.782 413.333 120.518 412.737 120.348C412.14 120.178 411.532 120.092 410.912 120.092C409.967 120.092 409.123 120.278 408.379 120.65C407.635 121.022 407.007 121.557 406.496 122.254C405.985 122.951 405.594 123.803 405.322 124.811C405.051 125.818 404.916 126.957 404.916 128.227C404.916 130.722 405.435 132.639 406.473 133.98C407.511 135.32 409.014 135.99 410.982 135.99C411.726 135.99 412.392 135.901 412.981 135.723C413.57 135.545 414.069 135.304 414.48 135.002C414.891 134.7 415.2 134.352 415.41 133.956C415.619 133.561 415.723 133.147 415.723 132.713C415.723 131.814 415.541 131.206 415.177 130.888C414.813 130.571 414.22 130.412 413.399 130.412V129.529H420V130.412C419.628 130.412 419.318 130.443 419.07 130.505C418.822 130.567 418.625 130.679 418.478 130.842C418.33 131.005 418.23 131.218 418.175 131.481C418.121 131.744 418.094 132.078 418.094 132.48V135.084C417.8 135.084 417.532 135.095 417.292 135.118C417.052 135.142 416.8 135.196 416.537 135.281C416.273 135.366 415.983 135.483 415.665 135.63C415.348 135.777 414.972 135.975 414.538 136.223C413.996 136.532 413.372 136.78 412.667 136.966C411.962 137.152 411.191 137.245 410.354 137.245Z" fill="currentColor"/>
    <path d="M218.818 67.7067C219.408 57.9797 221.471 47.2209 216.46 38.2308C214.249 35.1358 211.891 33.9568 209.533 33.9568C204.965 33.9568 200.396 38.3782 197.743 43.0943C195.532 46.4841 194.943 49.7264 192.732 53.1161C192.143 39.1151 193.911 25.4087 191.995 11.555C191.406 9.78648 190.521 8.75482 189.195 8.75482C188.458 8.75482 187.574 9.19695 186.689 9.93385C183.152 12.8815 183.152 18.1871 183.005 22.3138C183.3 39.2624 184.184 56.0637 183.447 72.865C183.152 80.5288 183.447 88.3399 183.447 96.0037C183.594 98.2144 183.889 100.572 184.331 102.783C184.626 104.257 185.51 104.846 186.395 104.846C187.574 104.846 188.753 103.962 189.342 102.783C192.732 85.8345 192.143 67.5594 199.806 51.6423C202.017 48.2526 204.375 41.7679 209.091 41.9153C210.565 46.3367 210.27 51.0528 210.27 55.6216C209.533 67.2646 208.207 78.9076 208.354 90.5506C208.354 93.2034 208.796 96.0037 209.533 98.6565C209.975 101.162 213.807 104.994 216.902 104.994C217.787 104.994 218.671 104.699 219.26 103.962C220.145 102.93 219.555 102.046 218.966 101.015C215.429 91.2875 218.523 78.0233 218.818 67.7067Z" fill="currentColor"/>
    <path d="M264.653 39.9993C264.801 37.1991 263.032 34.9884 261.116 34.9884C259.79 34.9884 258.463 36.1675 257.727 39.1151C253.747 53.853 251.979 69.0331 246.378 83.1816C244.168 88.0451 242.252 93.2034 237.978 96.8879C231.64 91.2875 235.767 65.7908 235.472 56.6532C235.325 50.1685 236.799 43.2417 234.883 37.0517C234.146 35.2832 232.672 34.3989 231.198 34.3989C230.019 34.3989 228.987 34.841 228.103 35.8727C224.861 39.5572 225.303 44.7155 224.861 49.2843C224.713 61.9589 224.566 74.6336 224.566 87.3082C224.124 95.5615 230.314 104.257 236.946 104.257C239.894 104.257 242.989 102.341 245.641 97.9196C247.999 93.4982 249.915 88.6347 251.831 83.9185C253.6 90.698 250.947 98.2143 255.516 104.404C256.4 105.436 257.284 105.878 258.169 105.878C259.495 105.878 260.379 104.552 260.232 102.194C261.706 81.4131 265.243 60.9273 264.653 39.9993Z" fill="currentColor"/>
    <path d="M326.111 41.3257C324.637 37.7886 321.837 36.0201 318.594 36.0201C312.11 36.0201 308.13 41.1784 304.888 46.0419C304.151 39.852 301.351 35.5779 297.224 35.5779C295.161 35.5779 292.95 36.6096 290.445 38.8203C287.497 42.21 284.844 45.7471 282.781 49.7264C282.486 49.7264 282.339 49.579 282.044 49.579C282.044 45.5998 282.192 41.6205 282.044 37.6413C282.044 35.8727 281.16 34.1041 279.244 33.662C278.802 33.5146 278.36 33.5146 278.065 33.5146C275.412 33.5146 273.349 36.0201 272.907 38.3782C271.58 44.7155 273.791 50.9054 273.791 56.948C273.201 72.5703 272.907 88.3399 273.644 103.815C274.086 105.731 275.559 106.762 276.886 106.762C278.36 106.762 279.686 105.878 280.128 104.11C280.423 102.636 280.423 101.015 280.423 99.5408C279.244 84.3607 282.486 69.4753 286.908 55.0321C288.529 49.7264 291.329 45.1576 296.045 42.0627C297.519 44.5681 297.372 47.0736 297.224 49.4317C295.898 65.9382 294.424 82.2974 293.835 98.8039C293.687 100.572 294.129 102.341 294.719 103.962C295.308 104.994 296.193 105.583 297.224 105.583C298.109 105.583 299.14 104.994 299.73 103.962C301.646 99.6882 300.909 94.6773 301.351 89.9611C301.94 79.6445 304.741 56.2111 311.52 47.8105C312.699 46.3367 315.205 43.9786 316.973 43.9786C317.857 43.9786 318.742 44.5681 319.037 46.3367C320.658 52.674 319.037 59.1587 318.889 65.6434C318.152 76.5495 317.415 87.4556 316.973 98.3618C317.268 101.162 317.121 107.057 321.1 107.352C324.49 107.499 324.784 102.341 325.079 99.5408C325.963 88.6347 326.7 77.7286 327.437 66.6751C327.879 58.2744 329.648 49.2843 326.111 41.3257Z" fill="currentColor"/>
    <path d="M374.009 47.3683C372.388 40.8836 367.082 37.0517 360.598 37.0517C353.376 37.0517 344.238 42.0626 343.944 49.7264C344.238 53.2635 346.449 54.7373 348.66 54.7373C352.197 54.7373 356.176 51.3476 355.439 46.3367C356.324 46.1893 357.355 46.0419 358.24 46.0419C361.482 46.0419 364.135 47.3683 364.872 51.4949C365.461 54.7373 366.198 57.9797 365.609 61.222C361.482 58.4218 357.503 57.2428 353.818 57.2428C338.491 57.2428 328.911 78.9076 330.532 94.5298C330.827 101.309 336.722 107.941 343.354 107.941C344.975 107.941 346.597 107.499 348.218 106.615C355.439 102.93 359.124 95.1194 363.545 88.6346C363.693 88.782 363.693 88.782 363.84 88.782C363.987 93.9403 361.629 99.6881 364.724 104.257C365.461 105.289 366.198 105.731 366.935 105.731C369.293 105.731 371.504 101.309 371.504 98.8039C372.83 81.7078 378.136 64.4644 374.009 47.3683ZM348.66 96.2984C346.744 98.067 345.27 98.8039 344.091 98.8039C335.985 98.8039 341.586 64.9065 355.587 64.9065C358.387 64.9065 361.335 66.2329 364.724 69.3279C359.419 78.4655 355.292 88.0451 348.66 96.2984Z" fill="currentColor"/>
    <path d="M419.697 106.615C417.339 103.225 417.191 99.3934 417.486 95.5615C417.928 80.3814 421.171 65.0539 419.55 49.8738C419.255 43.8312 415.128 36.757 409.528 36.757C407.907 36.757 406.138 37.3465 404.222 38.9677C397.59 44.8629 395.232 53.853 392.137 61.8115C391.695 56.0637 391.4 50.4633 392.579 44.7155C392.874 42.9469 392.726 40.7362 392.284 38.9677C391.695 36.1674 389.484 34.9884 387.273 34.9884C384.473 34.9884 381.673 36.757 381.673 40.1467C383.884 59.8956 382.852 79.9393 383.294 99.8355C383.294 101.899 383.736 103.962 384.178 105.878C384.621 107.205 385.652 107.941 386.979 107.941C389.631 107.941 390.074 104.994 390.516 103.078C394.2 87.1609 394.495 52.9688 408.938 44.126C410.559 46.7788 410.854 49.579 410.707 52.2319C410.265 60.043 409.675 67.7067 409.233 75.3705C409.086 84.3607 407.022 93.6456 408.791 102.636C409.822 106.91 413.36 108.678 417.044 109.857C417.191 109.857 417.486 109.857 417.634 109.857C419.255 109.857 420.581 108.384 419.697 106.615Z" fill="currentColor"/>
    <path fill-rule="evenodd" clip-rule="evenodd" d="M90.7267 115.913C141.481 97.9447 138.997 31.4227 102.487 0.822372C134.194 15.0098 150.53 53.3078 144.303 86.7638C139.432 112.937 119.807 134.537 94.4215 141.819C81.0617 145.651 66.759 146.402 53.2102 143.04C26.5275 136.419 5.57196 113.738 0.94879 86.6712C-2.75449 64.9899 4.42294 42.6716 21.785 28.5859C39.9032 13.8865 67.0593 10.4275 86.8748 23.8686C106.4 37.1125 113.414 65.3201 98.4562 84.7296C90.824 94.6336 78.2031 100.399 65.6641 98.4907C52.5537 96.4959 42.3511 84.6767 44.1244 71.1753C46.3446 88.699 67.0791 95.3327 79.5349 83.1076C91.0249 71.8304 84.827 54.3161 73.1822 45.7729C63.4748 38.651 49.791 40.4327 40.2328 46.9501C28.4381 54.9922 23.8362 69.1538 26.4207 82.8824C32.0801 112.946 63.7967 125.447 90.7267 115.913Z" fill="currentColor"/>
</svg>
