<svg width="30" height="30" viewBox="0 0 30 30" fill="none" xmlns="http://www.w3.org/2000/svg">
    <rect width="30" height="30" rx="10" fill="#166490"/>
    <path d="M14.7603 5.08203C14.49 5.13894 13.6365 5.42347 12.8825 5.708C11.5167 6.2486 10.6631 6.78921 9.56769 7.82773C9.25471 8.12649 8.95596 8.36834 8.89905 8.36834C8.82792 8.36834 8.78524 8.4537 8.78524 8.55328C8.78524 8.724 6.46633 10.9433 6.16758 11.0571C6.08222 11.0856 5.98263 11.1567 5.93996 11.1994C5.59852 11.612 3.80599 12.622 2.78169 12.9777C2.11305 13.2196 1.89965 13.4614 2.04191 13.8455C2.18418 14.2012 2.75324 14.0874 3.9198 13.4899C6.38097 12.2095 6.8789 11.8111 9.4112 9.2646C10.4355 8.2403 11.3033 7.50053 11.5309 7.44362C11.7443 7.38672 11.9151 7.28713 11.9151 7.23022C11.9151 7.01683 13.8356 6.20592 14.8884 5.99253C16.2114 5.72222 17.8759 5.79336 18.6726 6.16324C19.5973 6.60426 20.5363 7.58589 20.7212 8.28298C20.8066 8.62441 20.9204 9.02276 20.9631 9.16502C21.02 9.32151 20.835 9.13657 20.5789 8.76668C19.7254 7.57166 18.3312 7.32981 17.1362 8.1834C16.4391 8.68132 16.0407 9.39264 15.9411 10.3885C15.8558 11.3132 16.1688 12.8923 16.6525 13.874L16.9939 14.5995L16.5956 14.6849C16.3679 14.7276 15.8985 15.0263 15.5428 15.3535C14.8884 15.951 14.8884 15.951 13.7218 15.9653C12.9678 15.9795 12.4414 16.0506 12.2138 16.1929C11.1184 16.8615 10.5066 17.7862 10.4924 18.7821C10.4924 19.2942 10.4782 19.2942 9.79532 19.3938C8.91328 19.5076 8.10237 20.1763 7.59022 21.2006C7.16343 22.0399 7.12075 22.6232 7.44796 22.8935C7.80362 23.1781 8.08815 22.8935 8.31577 22.0257C8.55762 21.0299 9.06977 20.5319 9.99449 20.3043C11.1184 20.0482 11.3887 19.906 11.2891 19.6641C11.1468 19.3085 11.474 18.1846 11.8581 17.6867C12.3134 17.0891 13.2666 16.6908 13.9637 16.8188C15.5001 17.0749 15.3863 17.0891 15.6139 16.6054C15.9411 15.9083 16.9085 15.4389 17.8617 15.5385C19.1563 15.6523 19.9103 16.3778 20.1237 17.6867C20.2375 18.4407 20.4509 18.5402 21.3187 18.2557C23.3531 17.5728 25.5867 18.7394 26.4402 20.9303C26.7105 21.6131 27.0377 21.8977 27.2938 21.6416C27.5499 21.3855 27.2369 20.1478 26.6963 19.3654C26.4687 19.0097 26.2837 18.711 26.3122 18.6967C26.3407 18.6825 26.7248 18.5545 27.18 18.4122C28.0621 18.1561 28.3039 17.8716 27.9625 17.5302C27.7917 17.3594 27.6779 17.3452 27.3365 17.4875C27.1089 17.5728 26.5683 17.7009 26.1415 17.7578C25.4871 17.8431 25.2452 17.8147 24.6477 17.5586C24.0787 17.3168 23.6519 17.2599 22.4853 17.2599H21.02L20.9488 16.89C20.7781 16.0933 20.081 15.2539 19.2986 14.8556C18.886 14.6564 18.4023 14.4857 18.2458 14.4857C17.6768 14.4857 16.8943 12.2664 16.8943 10.6872C16.9085 9.7483 17.0935 9.32151 17.691 8.92317C18.6442 8.29721 19.64 8.76668 20.3229 10.1466C20.8208 11.1709 21.0342 11.3986 21.4041 11.3274C21.8593 11.2421 22.03 10.6588 21.9589 9.52068C21.8166 7.64279 20.8777 6.2486 19.199 5.42347C18.5161 5.09626 18.2174 5.03935 16.8374 5.0109C15.9696 4.98245 15.0306 5.0109 14.7603 5.08203Z" fill="white" stroke="white" stroke-width="0.5"/>
    <path d="M16.5102 18.6825C16.0976 18.8959 15.6424 19.2516 15.5143 19.4792C15.3294 19.778 15.1587 19.8918 14.8599 19.8918C13.8214 19.8918 12.6406 20.9872 12.5268 22.0827C12.4557 22.6233 12.4841 22.7228 12.7544 22.8082C13.167 22.9362 13.2808 22.8367 13.4657 22.1396C13.6507 21.414 13.7218 21.3002 14.1913 21.0726C14.9595 20.7027 15.7562 20.788 16.2684 21.3144C16.809 21.855 17.3211 21.8835 17.3211 21.3713C17.3211 21.1295 17.1362 20.8307 16.752 20.4751C16.1119 19.8776 16.1261 19.8349 17.065 19.3939C17.9186 18.9955 19.2132 19.2374 19.8392 19.9202C20.2233 20.3328 20.5932 21.1864 20.5932 21.6701C20.5932 22.04 20.8919 22.1396 21.2761 21.8977C21.6033 21.6985 21.2334 20.3186 20.6643 19.5646C20.0526 18.7679 19.3413 18.4265 18.1747 18.3553C17.3922 18.3127 17.1362 18.3696 16.5102 18.6825Z" fill="white" stroke="white" stroke-width="0.5"/>
</svg>
