<svg width="22" height="15" viewBox="0 0 22 15" fill="none" xmlns="http://www.w3.org/2000/svg">
    <g clip-path="url(#clip0_16021_215310)">
        <mask id="mask0_16021_215310" style="mask-type:alpha" maskUnits="userSpaceOnUse" x="0" y="0" width="22" height="15">
            <path d="M19.2031 0H2.20312C1.09856 0 0.203125 0.89543 0.203125 2V13C0.203125 14.1046 1.09856 15 2.20312 15H19.2031C20.3077 15 21.2031 14.1046 21.2031 13V2C21.2031 0.89543 20.3077 0 19.2031 0Z" fill="white"/>
        </mask>
        <g mask="url(#mask0_16021_215310)">
            <path d="M19.2031 0H2.20312C1.09856 0 0.203125 0.89543 0.203125 2V13C0.203125 14.1046 1.09856 15 2.20312 15H19.2031C20.3077 15 21.2031 14.1046 21.2031 13V2C21.2031 0.89543 20.3077 0 19.2031 0Z" fill="#E70B17"/>
            <path fill-rule="evenodd" clip-rule="evenodd" d="M14.2051 8.65197L13.0431 9.26197L13.2651 7.96897L12.3251 7.05197L13.6251 6.86197L14.2051 5.68597L14.7851 6.86297L16.0851 7.05297L15.1451 7.96797L15.3671 9.26097" fill="white"/>
            <path fill-rule="evenodd" clip-rule="evenodd" d="M9.70312 11C11.6361 11 13.2031 9.433 13.2031 7.5C13.2031 5.567 11.6361 4 9.70312 4C7.77013 4 6.20312 5.567 6.20312 7.5C6.20312 9.433 7.77013 11 9.70312 11ZM10.7031 10C12.0831 10 13.2031 8.88 13.2031 7.5C13.2031 6.12 12.0831 5 10.7031 5C9.32312 5 8.20312 6.12 8.20312 7.5C8.20312 8.88 9.32312 10 10.7031 10Z" fill="white"/>
            <path d="M19.2031 0.5H2.20312C1.3747 0.5 0.703125 1.17157 0.703125 2V13C0.703125 13.8284 1.3747 14.5 2.20312 14.5H19.2031C20.0316 14.5 20.7031 13.8284 20.7031 13V2C20.7031 1.17157 20.0316 0.5 19.2031 0.5Z" stroke="black" stroke-opacity="0.1"/>
        </g>
    </g>
    <defs>
        <clipPath id="clip0_16021_215310">
            <rect width="21" height="15" fill="white" transform="translate(0.203125)"/>
        </clipPath>
    </defs>
</svg>
